<svg id="master-artboard" viewBox="0 0 1350 599" version="1.1" xmlns="http://www.w3.org/2000/svg"  style="enable-background:new 0 0 336 235.2;" width="1350px" height="599px"><rect id="ee-background" x="0" y="0" width="500" style="fill: white; fill-opacity: 0; pointer-events: none;"/><g transform="matrix(1.164725422859192, 0, 0, 1.164725422859192, 7.06373405456543, 2.2638511657714844)"><path d="M339.132 343.858C155.791 341.164 74.5 527 0 527H1202V0C1060.44 0 962.43 108.933 811.531 262.174C661.67 372.7 557.753 347.071 339.132 343.858Z" fill="#BD00FF" fill-opacity="0.6"/></g><g transform="matrix(1.175231695175171, 0, 0, 1.175231695175171, 40.96955108642578, 115.35432052612305)"><path d="M327.282 277.957C150.348 275.78 83 426 0 426H1160V0C1023.38 0 928.801 88.0558 783.175 211.928C638.55 301.272 538.264 280.554 327.282 277.957Z" fill="#BD00FF"/></g></svg>